<svg width="215" height="38" viewBox="0 0 215 38" fill="none" xmlns="http://www.w3.org/2000/svg">
<path d="M13.1206 5.44878V29.6775H8.33845V5.44878H0.395874V1.14144H21.0216V5.44878H13.1206ZM26.2768 20.8558V21.8912C26.2768 22.609 26.4016 23.2303 26.6511 23.7549C26.9006 24.2519 27.2194 24.6661 27.6075 24.9974C28.0234 25.3011 28.4947 25.5359 29.0214 25.7015C29.5759 25.8395 30.1441 25.9086 30.7263 25.9086C31.364 25.9086 32.1264 25.7981 33.0134 25.5773C33.9283 25.3564 34.8293 24.8455 35.7164 24.0449C36.16 24.5695 36.5897 25.0803 37.0055 25.5773C37.4491 26.0466 37.8788 26.5436 38.2946 27.0683C37.1303 28.2003 35.8967 28.9597 34.5937 29.3462C33.3185 29.7052 32.0294 29.8846 30.7263 29.8846C29.5343 29.8846 28.3976 29.7327 27.3164 29.429C26.263 29.1254 25.3204 28.6698 24.4887 28.0623C23.6848 27.4273 23.0472 26.6404 22.5758 25.7015C22.1046 24.7627 21.8689 23.6584 21.8689 22.3882V17.004C21.8689 15.7615 22.0768 14.6433 22.4927 13.6493C22.9363 12.6553 23.5462 11.8132 24.3224 11.1229C25.0987 10.4325 25.9997 9.90802 27.0253 9.54903C28.0511 9.16252 29.1739 8.96919 30.3936 8.96919C31.6412 8.96919 32.7917 9.14862 33.8451 9.50761C34.8987 9.86661 35.7996 10.3911 36.5481 11.0814C37.3244 11.7441 37.9204 12.5587 38.3362 13.525C38.7521 14.4914 38.96 15.5959 38.96 16.8384V20.8558H26.2768ZM34.5105 17.0869C34.5105 15.651 34.1086 14.6156 33.3045 13.9806C32.5006 13.3179 31.5442 12.9866 30.4352 12.9866C29.3264 12.9866 28.356 13.3317 27.5243 14.022C26.7204 14.6847 26.3184 15.6924 26.3184 17.0454V17.7081H34.5105V17.0869ZM50.1926 29.926C48.6956 29.926 47.2401 29.7466 45.8263 29.3876C44.4124 29.0286 42.957 28.2556 41.4599 27.0683L43.8718 23.8792C44.8976 24.7352 45.9372 25.3288 46.9906 25.6601C48.044 25.9638 49.153 26.1157 50.3174 26.1157C51.2876 26.1157 52.1471 25.9086 52.8956 25.4944C53.6719 25.0803 54.0599 24.4453 54.0599 23.5893C54.0599 22.8714 53.8104 22.3468 53.3114 22.0154C52.8124 21.6565 52.0777 21.3942 51.1075 21.2285C50.1094 21.0629 49.0976 20.8834 48.0718 20.6901C47.046 20.4693 46.1174 20.1517 45.2857 19.7375C44.454 19.3234 43.7748 18.7712 43.2481 18.0809C42.7213 17.363 42.458 16.4242 42.458 15.2645C42.458 14.2705 42.6659 13.387 43.0817 12.6139C43.4976 11.8132 44.052 11.1505 44.7451 10.6259C45.4658 10.0737 46.2837 9.65952 47.1985 9.38336C48.1134 9.07969 49.0836 8.92778 50.1094 8.92778C51.6896 8.92778 53.1035 9.09344 54.351 9.42478C55.6263 9.72845 56.8738 10.3222 58.0936 11.2057L55.9312 14.4776C54.9332 13.8426 53.9629 13.4145 53.0203 13.1937C52.0777 12.9452 51.1213 12.8209 50.151 12.8209C49.0976 12.8209 48.2659 13.0557 47.656 13.525C47.0738 13.9944 46.7827 14.5467 46.7827 15.1817C46.7827 15.8167 47.0738 16.2862 47.656 16.5899C48.2381 16.866 48.9589 17.1006 49.8183 17.2939C50.7054 17.4596 51.6619 17.639 52.6877 17.8324C53.7134 18.0257 54.6559 18.3294 55.5154 18.7435C56.4025 19.1577 57.1372 19.7513 57.7193 20.5244C58.3015 21.2699 58.5926 22.2916 58.5926 23.5893C58.5926 24.5833 58.3709 25.4807 57.9273 26.2814C57.5114 27.0545 56.9154 27.7172 56.1391 28.2694C55.3906 28.794 54.5035 29.2082 53.4777 29.5119C52.452 29.788 51.357 29.926 50.1926 29.926ZM60.7949 12.9038V9.17628H63.6227L64.4959 4.24769H67.906V9.17628H73.2703V12.9038H67.906V22.1811C67.906 23.4788 68.0857 24.4176 68.4466 24.9974C68.8075 25.5496 69.5827 25.8258 70.7753 25.8258C71.1362 25.8258 71.607 25.7981 72.1891 25.7429C72.7713 25.6601 73.3669 25.5221 73.9773 25.3288L74.8505 29.1805C74.0188 29.4842 73.1322 29.6775 72.1891 29.7604C71.2743 29.8432 70.5391 29.8846 69.9852 29.8846C68.7659 29.8846 67.7396 29.7327 66.908 29.429C66.1045 29.0977 65.4524 28.6421 64.9534 28.0623C64.4543 27.4548 64.094 26.7232 63.8722 25.8672C63.6504 24.9837 63.5395 23.9897 63.5395 22.8852V12.9038H60.7949ZM108.001 21.6013C108.001 22.9266 107.738 24.1139 107.21 25.1631C106.685 26.1848 105.95 27.0545 105.006 27.7724C104.092 28.4627 102.984 29.0011 101.68 29.3876C100.377 29.7466 98.9634 29.926 97.4382 29.926C95.4154 29.926 93.5025 29.6499 91.6995 29.0977C89.9263 28.5179 88.2065 27.5515 86.5431 26.1985L89.2045 22.7609C90.452 23.6721 91.7693 24.39 93.155 24.9146C94.5688 25.4116 95.9827 25.6601 97.3966 25.6601C99.2827 25.6601 100.682 25.2874 101.597 24.5419C102.54 23.7687 103.01 22.8024 103.01 21.6427C103.01 20.842 102.817 20.1931 102.428 19.6961C102.069 19.1991 101.57 18.7849 100.931 18.4536C100.294 18.1223 99.5589 17.86 98.7273 17.6667C97.9238 17.4734 97.0787 17.2663 96.1906 17.0454C95.0827 16.7969 94.0015 16.4794 92.9471 16.0929C91.9223 15.7064 91.0075 15.2094 90.2025 14.6019C89.4273 13.9669 88.7886 13.2074 88.2896 12.3239C87.8188 11.4128 87.5827 10.3083 87.5827 9.01061C87.5827 7.79577 87.8055 6.67752 88.248 5.65586C88.6921 4.6342 89.3292 3.75069 90.1609 3.00519C90.9926 2.25969 91.9906 1.67986 93.155 1.26569C94.3193 0.823867 95.6233 0.603027 97.0639 0.603027C98.7837 0.603027 100.474 0.782451 102.137 1.14144C103.829 1.47278 105.437 2.12169 106.961 3.08803L104.84 6.98119C103.566 6.20803 102.29 5.66962 101.014 5.36594C99.7669 5.06227 98.5342 4.91036 97.3134 4.91036C96.6481 4.91036 96.0109 4.99319 95.4005 5.15886C94.8183 5.32453 94.2926 5.57303 93.8203 5.90436C93.3777 6.23569 93.0169 6.66362 92.7391 7.18828C92.4629 7.68528 92.3233 8.27887 92.3233 8.96919C92.3233 9.65952 92.5045 10.2394 92.8639 10.7087C93.2248 11.178 93.6956 11.5784 94.2777 11.9098C94.8881 12.2135 95.5669 12.4759 96.3154 12.6967C97.0921 12.89 97.8956 13.0694 98.7273 13.2351C100.086 13.5388 101.334 13.8978 102.47 14.3119C103.607 14.7261 104.577 15.2645 105.381 15.9272C106.212 16.5622 106.851 17.3354 107.294 18.2465C107.766 19.1577 108.001 20.2759 108.001 21.6013ZM113.745 37.9609L116.864 29.2634L115.367 28.0623L109.753 9.13486H114.41L116.614 17.5424L118.652 25.0389H118.777L121.397 17.501L124.183 9.13486H128.84L118.319 37.9609H113.745ZM138.884 29.926C137.387 29.926 135.932 29.7466 134.518 29.3876C133.104 29.0286 131.649 28.2556 130.152 27.0683L132.563 23.8792C133.588 24.7352 134.628 25.3288 135.682 25.6601C136.735 25.9638 137.845 26.1157 139.009 26.1157C139.979 26.1157 140.839 25.9086 141.587 25.4944C142.362 25.0803 142.752 24.4453 142.752 23.5893C142.752 22.8714 142.502 22.3468 142.003 22.0154C141.504 21.6565 140.769 21.3942 139.799 21.2285C138.801 21.0629 137.788 20.8834 136.763 20.6901C135.737 20.4693 134.809 20.1517 133.977 19.7375C133.146 19.3234 132.465 18.7712 131.94 18.0809C131.412 17.363 131.15 16.4242 131.15 15.2645C131.15 14.2705 131.357 13.387 131.773 12.6139C132.189 11.8132 132.743 11.1505 133.437 10.6259C134.157 10.0737 134.975 9.65952 135.89 9.38336C136.805 9.07969 137.775 8.92778 138.801 8.92778C140.381 8.92778 141.795 9.09344 143.043 9.42478C144.317 9.72845 145.564 10.3222 146.785 11.2057L144.623 14.4776C143.625 13.8426 142.653 13.4145 141.712 13.1937C140.769 12.9452 139.812 12.8209 138.843 12.8209C137.788 12.8209 136.956 13.0557 136.348 13.525C135.765 13.9944 135.474 14.5467 135.474 15.1817C135.474 15.8167 135.765 16.2862 136.348 16.5899C136.93 16.866 137.65 17.1006 138.51 17.2939C139.397 17.4596 140.353 17.639 141.379 17.8324C142.404 18.0257 143.347 18.3294 144.207 18.7435C145.094 19.1577 145.829 19.7513 146.411 20.5244C146.993 21.2699 147.284 22.2916 147.284 23.5893C147.284 24.5833 147.061 25.4807 146.619 26.2814C146.203 27.0545 145.606 27.7172 144.831 28.2694C144.082 28.794 143.194 29.2082 142.169 29.5119C141.143 29.788 140.049 29.926 138.884 29.926ZM149.487 12.9038V9.17628H152.314L153.188 4.24769H156.598V9.17628H161.962V12.9038H156.598V22.1811C156.598 23.4788 156.777 24.4176 157.138 24.9974C157.498 25.5496 158.274 25.8258 159.467 25.8258C159.826 25.8258 160.299 25.7981 160.881 25.7429C161.463 25.6601 162.058 25.5221 162.669 25.3288L163.542 29.1805C162.71 29.4842 161.822 29.6775 160.881 29.7604C159.966 29.8432 159.231 29.8846 158.677 29.8846C157.456 29.8846 156.431 29.7327 155.6 29.429C154.795 29.0977 154.144 28.6421 153.645 28.0623C153.146 27.4548 152.785 26.7232 152.564 25.8672C152.341 24.9837 152.231 23.9897 152.231 22.8852V12.9038H149.487ZM170.075 20.8558V21.8912C170.075 22.609 170.2 23.2303 170.45 23.7549C170.699 24.2519 171.018 24.6661 171.406 24.9974C171.822 25.3011 172.293 25.5359 172.82 25.7015C173.374 25.8395 173.943 25.9086 174.525 25.9086C175.162 25.9086 175.925 25.7981 176.812 25.5773C177.727 25.3564 178.628 24.8455 179.515 24.0449C179.959 24.5695 180.388 25.0803 180.804 25.5773C181.248 26.0466 181.677 26.5436 182.093 27.0683C180.929 28.2003 179.695 28.9597 178.392 29.3462C177.116 29.7052 175.827 29.8846 174.525 29.8846C173.332 29.8846 172.196 29.7327 171.115 29.429C170.062 29.1254 169.119 28.6698 168.287 28.0623C167.484 27.4273 166.845 26.6404 166.374 25.7015C165.903 24.7627 165.667 23.6584 165.667 22.3882V17.004C165.667 15.7615 165.875 14.6433 166.291 13.6493C166.735 12.6553 167.344 11.8132 168.121 11.1229C168.898 10.4325 169.798 9.90802 170.824 9.54903C171.85 9.16252 172.973 8.96919 174.192 8.96919C175.44 8.96919 176.591 9.14862 177.644 9.50761C178.697 9.86661 179.598 10.3911 180.347 11.0814C181.123 11.7441 181.719 12.5587 182.135 13.525C182.551 14.4914 182.758 15.5959 182.758 16.8384V20.8558H170.075ZM178.309 17.0869C178.309 15.651 177.906 14.6156 177.103 13.9806C176.3 13.3179 175.343 12.9866 174.234 12.9866C173.124 12.9866 172.154 13.3317 171.323 14.022C170.519 14.6847 170.117 15.6924 170.117 17.0454V17.7081H178.309V17.0869ZM196.486 8.92778C197.761 8.92778 198.829 9.19003 199.688 9.71469C200.576 10.2394 201.254 10.971 201.725 11.9098C202.585 11.2471 203.334 10.7224 203.971 10.3359C204.636 9.94944 205.233 9.65952 205.759 9.4662C206.286 9.24536 206.757 9.1072 207.173 9.05203C207.589 8.96919 207.978 8.92778 208.337 8.92778C210.445 8.92778 212.025 9.54903 213.078 10.7915C214.159 12.0064 214.7 13.7598 214.7 16.0514V29.6775H210.292V16.6727C210.292 15.4302 210.042 14.5467 209.543 14.022C209.044 13.4699 208.31 13.1937 207.339 13.1937C206.674 13.1937 205.967 13.3731 205.218 13.7321C204.47 14.0911 203.597 14.657 202.599 15.4302C202.627 15.7339 202.64 16.01 202.64 16.2585C202.668 16.507 202.682 16.7832 202.682 17.0869V29.6775H198.232V16.5899C198.232 15.3197 197.956 14.4362 197.401 13.9392C196.875 13.4422 196.236 13.1937 195.488 13.1937C194.739 13.1937 194.005 13.3456 193.284 13.6493C192.563 13.9254 191.677 14.4224 190.622 15.1403V29.6775H186.173V9.17628H190.206L190.581 11.2885C192.023 10.2669 193.187 9.61811 194.074 9.34195C194.962 9.06579 195.765 8.92778 196.486 8.92778Z" fill="white"/>
</svg>
