<svg width="24" height="24" viewBox="0 0 24 24" fill="none" xmlns="http://www.w3.org/2000/svg">
<path d="M12 24C5.38047 24 0 18.6195 0 12C0 5.38047 5.38047 0 12 0C18.6195 0 24 5.38047 24 12C24 18.6195 18.6195 24 12 24ZM12 1.67442C6.30698 1.67442 1.67442 6.30698 1.67442 12C1.67442 17.693 6.30698 22.3256 12 22.3256C17.693 22.3256 22.3256 17.693 22.3256 12C22.3256 6.30698 17.693 1.67442 12 1.67442Z" fill="#0E6FB6"/>
<path d="M15.1324 15.9999C14.9832 15.9999 14.834 15.9685 14.6962 15.8847L11.1381 13.948C10.2543 13.4664 9.6001 12.4091 9.6001 11.4773V7.18507C9.6001 6.75585 9.99034 6.3999 10.4609 6.3999C10.9315 6.3999 11.3218 6.75585 11.3218 7.18507V11.4773C11.3218 11.8542 11.6661 12.4091 12.0219 12.5975L15.58 14.5343C15.9932 14.7541 16.1195 15.2357 15.8785 15.6126C15.7063 15.8638 15.4193 15.9999 15.1324 15.9999Z" fill="#0E6FB6"/>
</svg>
